<?xml version="1.0" encoding="UTF-8"?><svg id="Layer_1" xmlns="http://www.w3.org/2000/svg" viewBox="0 0 64 64"><defs><style>.cls-1{fill:#fff;}.cls-2{fill:#111827;}</style></defs><g><path class="cls-1" d="M62.36,8.76V55.24c0,2.89-1.71,5.35-4.17,6.48L2.28,5.82C3.4,3.35,5.88,1.64,8.76,1.64H55.24c3.92,0,7.11,3.19,7.11,7.11Z"/><path class="cls-2" d="M58.04,62.52l-.32-.33L1.49,5.96l.19-.42C2.94,2.77,5.72,.98,8.76,.98H55.25c4.29,0,7.78,3.49,7.78,7.78V55.24c0,3.04-1.79,5.81-4.56,7.08l-.42,.19ZM3.08,5.68L58.32,60.92c2.07-1.13,3.38-3.31,3.38-5.67V8.76c0-3.56-2.89-6.45-6.45-6.45H8.76c-2.37,0-4.55,1.31-5.67,3.38Z"/></g><g><path class="cls-2" d="M58.19,61.72c-.9,.41-1.89,.64-2.94,.64H8.76c-3.92,0-7.11-3.18-7.11-7.11V8.76c0-1.05,.23-2.04,.64-2.94L58.19,61.72Z"/><path class="cls-2" d="M55.25,63.02H8.76c-4.29,0-7.78-3.49-7.78-7.78V8.76c0-1.12,.23-2.2,.7-3.21l.4-.87L59.33,61.93l-.87,.4c-1.01,.46-2.09,.69-3.21,.69ZM2.54,7.02c-.16,.56-.24,1.14-.24,1.74V55.24c0,3.56,2.89,6.45,6.45,6.45H55.25c.6,0,1.18-.08,1.74-.24L2.54,7.02Z"/></g><g><path class="cls-1" d="M54.62,47.63c-.17,3.89-3.38,7.02-7.33,7.02H16.71c-4.05,0-7.34-3.3-7.34-7.35V16.71c0-3.95,3.11-7.15,7.01-7.33,.01,21.12,17.13,38.23,38.25,38.25Z"/><path class="cls-2" d="M47.3,55.31H16.71c-4.41,0-8-3.6-8-8.02V16.7c0-4.29,3.36-7.8,7.64-7.99l.69-.03v.69c.01,20.71,16.87,37.57,37.59,37.59h.69l-.03,.69c-.19,4.29-3.7,7.66-7.99,7.66ZM15.72,10.11c-3.24,.48-5.69,3.25-5.69,6.6v30.59c0,3.69,3,6.69,6.68,6.69h30.59c3.35,0,6.12-2.46,6.6-5.71-20.87-.4-37.78-17.31-38.18-38.18Z"/></g><g><path class="cls-2" d="M54.63,16.71v30.59c0,.11,0,.23-.01,.33-21.12-.01-38.23-17.13-38.25-38.25,.11-.01,.23-.01,.33-.01h30.59c4.05,0,7.34,3.29,7.34,7.34Z"/><path class="cls-2" d="M55.21,48.29h-.59c-21.44-.01-38.9-17.47-38.91-38.91v-.59l.58-.07c.13-.02,.28-.02,.41-.02h30.59c4.41,0,8,3.59,8,8v30.59c0,.13,0,.28-.02,.41l-.07,.58ZM17.04,10.03c.36,20.2,16.73,36.57,36.93,36.93V16.7c0-3.68-3-6.68-6.68-6.68H17.04Z"/></g></svg>